<?xml version="1.0" encoding="UTF-8"?>
<svg width="48" height="32" viewBox="0 0 48 32" fill="none" xmlns="http://www.w3.org/2000/svg">
  <path d="M44 0H4C1.79086 0 0 1.79086 0 4V28C0 30.2091 1.79086 32 4 32H44C46.2091 32 48 30.2091 48 28V4C48 1.79086 46.2091 0 44 0Z" fill="#F7F7F7"/>
  <path d="M45 16.5059L43.2 12.0059H40.2L42 16.5059L40.2 21.0059H43.2L45 16.5059Z" fill="#006FCF"/>
  <path d="M39 16.5059L37.2 12.0059H34.2L36 16.5059L34.2 21.0059H37.2L39 16.5059Z" fill="#006FCF"/>
  <path d="M33 16.5059L31.2 12.0059H28.2L30 16.5059L28.2 21.0059H31.2L33 16.5059Z" fill="#006FCF"/>
  <path d="M27 16.5059L25.2 12.0059H22.2L24 16.5059L22.2 21.0059H25.2L27 16.5059Z" fill="#006FCF"/>
  <path d="M21 16.5059L19.2 12.0059H16.2L18 16.5059L16.2 21.0059H19.2L21 16.5059Z" fill="#006FCF"/>
  <path d="M15 16.5059L13.2 12.0059H10.2L12 16.5059L10.2 21.0059H13.2L15 16.5059Z" fill="#006FCF"/>
  <path d="M9 16.5059L7.2 12.0059H4.2L6 16.5059L4.2 21.0059H7.2L9 16.5059Z" fill="#006FCF"/>
</svg>
