<?xml version="1.0" encoding="UTF-8"?>
<svg width="48" height="32" viewBox="0 0 48 32" fill="none" xmlns="http://www.w3.org/2000/svg">
  <path d="M44 0H4C1.79086 0 0 1.79086 0 4V28C0 30.2091 1.79086 32 4 32H44C46.2091 32 48 30.2091 48 28V4C48 1.79086 46.2091 0 44 0Z" fill="#F7F7F7"/>
  <path d="M18.6 21.978H15.509L17.455 10.022H20.546L18.6 21.978Z" fill="#00579F"/>
  <path d="M28.877 10.284C28.183 10.033 27.026 9.75 25.558 9.75C22.31 9.75 20.003 11.471 19.99 13.905C19.964 15.721 21.632 16.736 22.892 17.342C24.179 17.961 24.614 18.369 24.614 18.927C24.601 19.797 23.544 20.19 22.57 20.19C21.22 20.19 20.496 19.992 19.385 19.533L18.877 19.303L18.325 22.026C19.145 22.385 20.647 22.697 22.205 22.71C25.649 22.71 27.917 21.015 27.943 18.435C27.956 17.004 27.026 15.932 25.039 14.997C23.87 14.401 23.154 13.98 23.154 13.357C23.167 12.798 23.792 12.226 25.221 12.226C26.391 12.213 27.248 12.473 27.891 12.733L28.26 12.889L28.877 10.284Z" fill="#00579F"/>
  <path d="M33.244 10.022C32.654 10.022 32.168 10.153 31.878 10.81L27.365 21.978H30.743L31.404 20.203H35.372L35.741 21.978H38.727L36.099 10.022H33.244ZM32.38 17.89L33.89 13.85L34.741 17.89H32.38Z" fill="#00579F"/>
  <path d="M13.903 10.022L10.785 18.146L10.473 16.918C9.861 15.064 8.144 13.071 6.211 12.018L9.094 21.965H12.498L17.351 10.022H13.903Z" fill="#00579F"/>
  <path d="M8.235 10.022H3.235L3.183 10.271C7.144 11.26 9.717 13.772 10.473 16.918L9.47 11.391C9.301 10.758 8.812 10.048 8.235 10.022Z" fill="#FAA61A"/>
</svg>
