<?xml version="1.0" encoding="UTF-8"?>
<svg width="24" height="24" viewBox="0 0 24 24" fill="none" xmlns="http://www.w3.org/2000/svg">
  <path d="M8.5 6.5C4.35786 6.5 1 9.13401 1 12.3992C1 14.1865 2.01425 15.7881 3.61524 16.8827L2.97024 19.0007L5.31772 17.6429C6.29675 17.9891 7.37128 18.1754 8.5 18.1754C12.6421 18.1754 16 15.5414 16 12.2762C16 9.01101 12.6421 6.5 8.5 6.5Z" fill="#51C332"/>
  <path d="M23 17.5C23 15.0147 20.3137 13 17 13C13.6863 13 11 15.0147 11 17.5C11 19.9853 13.6863 22 17 22C18.3625 22 19.6238 21.6318 20.6284 21.0159L22.1829 22L21.7156 20.4091C22.5317 19.6318 23 18.6053 23 17.5Z" fill="#51C332"/>
</svg>
